<?xml version="1.0" encoding="UTF-8" standalone="no"?>
<!-- Created with Inkscape (http://www.inkscape.org/) -->

<svg
   xmlns:dc="http://purl.org/dc/elements/1.1/"
   xmlns:cc="http://creativecommons.org/ns#"
   xmlns:rdf="http://www.w3.org/1999/02/22-rdf-syntax-ns#"
   xmlns:svg="http://www.w3.org/2000/svg"
   xmlns="http://www.w3.org/2000/svg"
   xmlns:sodipodi="http://sodipodi.sourceforge.net/DTD/sodipodi-0.dtd"
   xmlns:inkscape="http://www.inkscape.org/namespaces/inkscape"
   width="326.3125"
   height="326.3125"
   id="svg2"
   version="1.1"
   inkscape:version="0.48.4 r9939"
   sodipodi:docname="Nuovo documento 1">
  <defs
     id="defs4">
    <linearGradient
       id="linearGradient3803">
      <stop
         style="stop-color:#000000;stop-opacity:0;"
         offset="0"
         id="stop3805" />
      <stop
         style="stop-color:#000000;stop-opacity:1;"
         offset="1"
         id="stop3807" />
    </linearGradient>
  </defs>
  <sodipodi:namedview
     id="base"
     pagecolor="#ffffff"
     bordercolor="#666666"
     borderopacity="1.0"
     inkscape:pageopacity="0.0"
     inkscape:pageshadow="2"
     inkscape:zoom="0.62"
     inkscape:cx="-54.673865"
     inkscape:cy="246.10859"
     inkscape:document-units="px"
     inkscape:current-layer="layer1"
     showgrid="false"
     fit-margin-top="0"
     fit-margin-left="0"
     fit-margin-right="0"
     fit-margin-bottom="0"
     inkscape:window-width="1920"
     inkscape:window-height="1014"
     inkscape:window-x="0"
     inkscape:window-y="27"
     inkscape:window-maximized="1" />
  <metadata
     id="metadata7">
    <rdf:RDF>
      <cc:Work
         rdf:about="">
        <dc:format>image/svg+xml</dc:format>
        <dc:type
           rdf:resource="http://purl.org/dc/dcmitype/StillImage" />
        <dc:title></dc:title>
      </cc:Work>
    </rdf:RDF>
  </metadata>
  <g
     inkscape:label="Livello 1"
     inkscape:groupmode="layer"
     id="layer1"
     transform="translate(-180.1119,-452.15827)">
    <path
       style="fill:#696969;fill-opacity:1;stroke:none"
       d="m 180.1119,452.15827 0,326.3125 326.3125,0 0,-326.3125 -326.3125,0 z m 181.0625,108.5 c 51.31816,0 92.96875,41.6506 92.96875,92.96875 0,20.12381 -6.46683,38.7275 -17.34375,53.9375 l 8.09375,6.90625 27.40625,-28.03125 19.3125,19.0625 -46.0625,47.0625 -13.28125,-13.15625 -14.34375,-12.25 c -15.70678,12.1321 -35.37065,19.375 -56.75,19.375 -51.31815,0 -92.90625,-41.5881 -92.90625,-92.90625 0,-51.31815 41.5881,-92.96875 92.90625,-92.96875 z m -0.15625,20.15625 c -40.07428,0 -72.5625,32.51947 -72.5625,72.59375 0,40.07429 32.48822,72.5625 72.5625,72.5625 15.14123,0 29.18198,-4.66288 40.8125,-12.59375 l -32.53125,-27.8125 17.625,-20.65625 34.125,29.1875 c 7.87658,-11.60505 12.5,-25.60295 12.5,-40.6875 0,-40.07428 -32.45696,-72.59375 -72.53125,-72.59375 z"
       id="rect2985"
       inkscape:connector-curvature="0" />
  </g>
</svg>
